{"accessors": [{"bufferView": 2, "componentType": 5126, "count": 65532, "max": [54.522830963134766, 63.761375427246094, 87.66551971435547], "min": [-120.31869506835938, -66.91404724121094, -117.63539123535156], "type": "VEC3"}, {"bufferView": 2, "byteOffset": 786384, "componentType": 5126, "count": 65532, "max": [0.999999463558197, 1.0, 1.0], "min": [-1.0, -1.0, -1.0], "type": "VEC3"}, {"bufferView": 1, "componentType": 5126, "count": 65532, "max": [0.9937729835510254, 0.8370180130004883], "min": [0.0007089999853633344, 0.00022200000239536166], "type": "VEC2"}, {"bufferView": 0, "componentType": 5125, "count": 363873, "type": "SCALAR"}, {"bufferView": 2, "byteOffset": 1572768, "componentType": 5126, "count": 65532, "max": [103.12283325195312, 96.88594818115234, 90.4709243774414], "min": [-121.15284729003906, -104.18961334228516, -107.63447570800781], "type": "VEC3"}, {"bufferView": 2, "byteOffset": 2359152, "componentType": 5126, "count": 65532, "max": [1.0, 0.9999954700469971, 1.0], "min": [-1.0, -0.9999971389770508, -1.0], "type": "VEC3"}, {"bufferView": 1, "byteOffset": 524256, "componentType": 5126, "count": 65532, "max": [0.9603689908981323, 0.7018359899520874], "min": [0.18990899622440338, 0.007538000121712685], "type": "VEC2"}, {"bufferView": 0, "byteOffset": 1455492, "componentType": 5125, "count": 365628, "type": "SCALAR"}, {"bufferView": 2, "byteOffset": 3145536, "componentType": 5126, "count": 65532, "max": [119.26390838623047, 120.14376831054688, 88.56551361083984], "min": [-120.23146057128906, -103.36180114746094, -95.03447723388672], "type": "VEC3"}, {"bufferView": 2, "byteOffset": 3931920, "componentType": 5126, "count": 65532, "max": [1.0, 1.0, 0.999995768070221], "min": [-1.0, -1.0, -0.9988453984260559], "type": "VEC3"}, {"bufferView": 1, "byteOffset": 1048512, "componentType": 5126, "count": 65532, "max": [0.98860102891922, 0.9888499975204468], "min": [0.0007089999853633344, 0.15508800745010376], "type": "VEC2"}, {"bufferView": 0, "byteOffset": 2918004, "componentType": 5125, "count": 345378, "type": "SCALAR"}, {"bufferView": 2, "byteOffset": 4718304, "componentType": 5126, "count": 65532, "max": [119.22164916992188, 120.1666030883789, 86.49784851074219], "min": [-106.57716369628906, -104.18961334228516, -94.89655303955078], "type": "VEC3"}, {"bufferView": 2, "byteOffset": 5504688, "componentType": 5126, "count": 65532, "max": [1.0, 0.999993085861206, 1.0], "min": [-0.9999989867210388, -1.0, -0.9999693036079407], "type": "VEC3"}, {"bufferView": 1, "byteOffset": 1572768, "componentType": 5126, "count": 65532, "max": [0.9752699732780457, 0.9992910027503967], "min": [0.012354999780654907, 0.4486890137195587], "type": "VEC2"}, {"bufferView": 0, "byteOffset": 4299516, "componentType": 5125, "count": 328002, "type": "SCALAR"}, {"bufferView": 2, "byteOffset": 6291072, "componentType": 5126, "count": 19412, "max": [97.72283172607422, 26.68595314025879, 85.86551666259766], "min": [-121.15284729003906, -103.81404113769531, -85.13447570800781], "type": "VEC3"}, {"bufferView": 2, "byteOffset": 6524016, "componentType": 5126, "count": 19412, "max": [1.0, 0.9989871382713318, 0.8677107095718384], "min": [-0.999977171421051, -1.0, -0.9883028268814087], "type": "VEC3"}, {"bufferView": 1, "byteOffset": 2097024, "componentType": 5126, "count": 19412, "max": [0.8032529950141907, 0.7623069882392883], "min": [0.4037970006465912, 0.1748879998922348], "type": "VEC2"}, {"bufferView": 0, "byteOffset": 5611524, "componentType": 5125, "count": 90726, "type": "SCALAR"}], "asset": {"extras": {"author": "VAR Lab (https://sketchfab.com/varlab)", "license": "CC-BY-4.0 (http://creativecommons.org/licenses/by/4.0/)", "source": "https://sketchfab.com/3d-models/faro-focus-0951b784b9114afa88ef19e8a37c3838", "title": "Faro Focus"}, "generator": "Sketchfab-15.19.0", "version": "2.0"}, "bufferViews": [{"buffer": 0, "byteLength": 5974428, "name": "floatBufferViews", "target": 34963}, {"buffer": 0, "byteLength": 2252320, "byteOffset": 5974428, "byteStride": 8, "name": "floatBufferViews", "target": 34962}, {"buffer": 0, "byteLength": 6756960, "byteOffset": 8226748, "byteStride": 12, "name": "floatBufferViews", "target": 34962}], "buffers": [{"byteLength": 14983708, "uri": "scene.bin"}], "images": [{"uri": "baseColor.jpg"}, {"uri": "metallicRoughness.jpg"}], "materials": [{"doubleSided": true, "name": "material_0", "pbrMetallicRoughness": {"baseColorTexture": {"index": 0}, "metallicRoughnessTexture": {"index": 1}, "roughnessFactor": 0.4376586748096509}}], "meshes": [{"name": "Object_0", "primitives": [{"attributes": {"NORMAL": 1, "POSITION": 0, "TEXCOORD_0": 2}, "indices": 3, "material": 0, "mode": 4}]}, {"name": "Object_1", "primitives": [{"attributes": {"NORMAL": 5, "POSITION": 4, "TEXCOORD_0": 6}, "indices": 7, "material": 0, "mode": 4}]}, {"name": "Object_2", "primitives": [{"attributes": {"NORMAL": 9, "POSITION": 8, "TEXCOORD_0": 10}, "indices": 11, "material": 0, "mode": 4}]}, {"name": "Object_3", "primitives": [{"attributes": {"NORMAL": 13, "POSITION": 12, "TEXCOORD_0": 14}, "indices": 15, "material": 0, "mode": 4}]}, {"name": "Object_4", "primitives": [{"attributes": {"NORMAL": 17, "POSITION": 16, "TEXCOORD_0": 18}, "indices": 19, "material": 0, "mode": 4}]}], "nodes": [{"children": [1], "matrix": [0.0013809787342324853, 0.0, 0.0, 0.0, 0.0, 3.06638877452522e-19, -0.0013809787342324853, 0.0, 0.0, 0.0013809787342324853, 3.06638877452522e-19, 0.0, 0.0, 0.0, 0.0, 1.0], "name": "Sketchfab_model"}, {"children": [2, 3, 4, 5, 6], "name": "Faro_Focus.obj.cleaner.materialmerger.gles"}, {"mesh": 0, "name": "Object_2"}, {"mesh": 1, "name": "Object_3"}, {"mesh": 2, "name": "Object_4"}, {"mesh": 3, "name": "Object_5"}, {"mesh": 4, "name": "Object_6"}], "samplers": [{"magFilter": 9729, "minFilter": 9987, "wrapS": 10497, "wrapT": 10497}], "scene": 0, "scenes": [{"name": "Sketchfab_Scene", "nodes": [0]}], "textures": [{"sampler": 0, "source": 0}, {"sampler": 0, "source": 1}]}